<svg width="13" height="15" viewBox="0 0 13 15" fill="none" xmlns="http://www.w3.org/2000/svg">
<path d="M11.1633 14C10.9475 13.9994 10.734 13.9561 10.535 13.8725C10.3361 13.7888 10.1557 13.6667 10.0042 13.5129L6.41674 9.94642L2.82924 13.5153C2.59884 13.749 2.30336 13.9079 1.98132 13.9713C1.65927 14.0347 1.32561 13.9995 1.02382 13.8705C0.71904 13.7479 0.458307 13.5363 0.275673 13.2632C0.0930382 12.9901 -0.00300956 12.6683 7.18878e-05 12.3398V2.91667C7.18878e-05 2.14312 0.307363 1.40125 0.854344 0.854272C1.40132 0.307291 2.14319 0 2.91674 0L9.91674 0C10.2998 0 10.679 0.0754418 11.0329 0.222018C11.3868 0.368594 11.7083 0.583434 11.9791 0.854272C12.25 1.12511 12.4648 1.44664 12.6114 1.80051C12.758 2.15437 12.8334 2.53364 12.8334 2.91667V12.3398C12.8367 12.6681 12.741 12.9897 12.5588 13.2627C12.3766 13.5357 12.1163 13.7475 11.812 13.8705C11.6065 13.9564 11.386 14.0005 11.1633 14ZM2.91674 1.16667C2.45261 1.16667 2.00749 1.35104 1.6793 1.67923C1.35111 2.00742 1.16674 2.45254 1.16674 2.91667V12.3398C1.16653 12.437 1.19513 12.5321 1.24893 12.6131C1.30273 12.694 1.37932 12.7572 1.46902 12.7947C1.55871 12.8321 1.6575 12.8422 1.7529 12.8235C1.84829 12.8048 1.93602 12.7583 2.00499 12.6898L6.00841 8.71092C6.1177 8.60227 6.26555 8.54129 6.41966 8.54129C6.57376 8.54129 6.72161 8.60227 6.83091 8.71092L10.8297 12.6887C10.8986 12.7572 10.9864 12.8037 11.0817 12.8223C11.1771 12.841 11.2759 12.831 11.3656 12.7935C11.4553 12.7561 11.5319 12.6929 11.5857 12.6119C11.6395 12.531 11.6681 12.4359 11.6679 12.3387V2.91667C11.6679 2.45254 11.4835 2.00742 11.1553 1.67923C10.8272 1.35104 10.382 1.16667 9.91791 1.16667H2.91674Z" fill="#A0A1A6"/>
</svg>
