<svg width="14" height="14" viewBox="0 0 14 14" fill="none" xmlns="http://www.w3.org/2000/svg">
<path d="M13.5825 2.37825C13.4143 2.18134 13.2037 2.02297 12.9657 1.91439C12.7277 1.80581 12.4681 1.74969 12.2053 1.75H2.53675L2.51163 1.54525C2.46023 1.11966 2.25053 0.727261 1.92229 0.442445C1.59405 0.15763 1.17008 0.00019938 0.730765 0H0.598008C0.439406 0 0.287301 0.0614582 0.175152 0.170854C0.0630042 0.280251 0 0.428624 0 0.583333C0 0.738043 0.0630042 0.886416 0.175152 0.995812C0.287301 1.10521 0.439406 1.16667 0.598008 1.16667H0.730765C0.877237 1.16669 1.01861 1.21914 1.12807 1.31408C1.23752 1.40903 1.30745 1.53985 1.32459 1.68175L2.14745 8.50675C2.23287 9.21655 2.58248 9.87104 3.12992 10.346C3.67735 10.821 4.38451 11.0834 5.11715 11.0833H11.3621C11.5207 11.0833 11.6729 11.0219 11.785 10.9125C11.8972 10.8031 11.9602 10.6547 11.9602 10.5C11.9602 10.3453 11.8972 10.1969 11.785 10.0875C11.6729 9.97813 11.5207 9.91667 11.3621 9.91667H5.11715C4.74702 9.91565 4.38627 9.80299 4.08435 9.59412C3.78244 9.38525 3.55415 9.09041 3.43077 8.75H10.559C11.2601 8.75004 11.9388 8.5098 12.4767 8.07126C13.0146 7.63271 13.3775 7.02374 13.5018 6.35075L13.9713 3.81092C14.0181 3.55892 14.0076 3.29996 13.9404 3.05237C13.8732 2.80479 13.7511 2.57465 13.5825 2.37825ZM12.7974 3.60383L12.3273 6.14367C12.2527 6.54792 12.0346 6.91366 11.7113 7.17687C11.388 7.44007 10.9801 7.58396 10.559 7.58333H3.2406L2.67788 2.91667H12.2053C12.2932 2.91616 12.3801 2.93453 12.4598 2.97048C12.5396 3.00644 12.6102 3.05909 12.6667 3.12469C12.7232 3.19029 12.7642 3.26723 12.7868 3.35005C12.8094 3.43286 12.813 3.51951 12.7974 3.60383Z" fill="#1D1D1D"/>
<path d="M4.18605 14C4.84659 14 5.38207 13.4777 5.38207 12.8333C5.38207 12.189 4.84659 11.6667 4.18605 11.6667C3.52551 11.6667 2.99004 12.189 2.99004 12.8333C2.99004 13.4777 3.52551 14 4.18605 14Z" fill="#1D1D1D"/>
<path d="M10.1661 14C10.8267 14 11.3621 13.4777 11.3621 12.8333C11.3621 12.189 10.8267 11.6667 10.1661 11.6667C9.50559 11.6667 8.97011 12.189 8.97011 12.8333C8.97011 13.4777 9.50559 14 10.1661 14Z" fill="#1D1D1D"/>
</svg>
