<svg width="18" height="18" viewBox="0 0 18 18" fill="none" xmlns="http://www.w3.org/2000/svg">
<path id="Vector" fill-rule="evenodd" clip-rule="evenodd" d="M9 0C4.03125 0 0 4.03125 0 9C0 13.9688 4.03125 18 9 18C13.959 18 18 13.9688 18 9C18 4.03125 13.959 0 9 0ZM14.9445 4.14825C16.0185 5.45625 16.6628 7.12575 16.6823 8.93175C16.4287 8.883 13.8907 8.3655 11.3325 8.68725C11.274 8.5605 11.2253 8.424 11.1667 8.2875C11.0107 7.91625 10.8345 7.536 10.659 7.1745C13.4902 6.0225 14.7788 4.3635 14.9445 4.14825ZM10.0635 6.03225C8.80425 3.71925 7.4085 1.82475 7.194 1.53225C7.77 1.39575 8.37525 1.3275 9 1.3275C10.9522 1.3275 12.7388 2.0595 14.0955 3.26025C13.959 3.45525 12.7972 5.00775 10.0635 6.03225ZM5.73 2.04975C5.93475 2.32275 7.30125 4.22625 8.58 6.49125C4.9875 7.4475 1.815 7.42875 1.47375 7.42875C1.97175 5.04675 3.58275 3.06525 5.73 2.04975ZM1.308 8.775C1.6395 8.78475 5.3685 8.8335 9.20475 7.68225C9.42975 8.11125 9.6345 8.55075 9.8295 8.99025C9.732 9.0195 9.62475 9.04875 9.5265 9.078C5.5635 10.3568 3.45525 13.8517 3.279 14.1442C2.05875 12.7875 1.30725 10.9815 1.30725 9.00975V8.775H1.308ZM10.3177 10.269C10.3372 10.2593 10.347 10.2593 10.3665 10.2495C11.4502 13.0507 11.8898 15.4035 12.0068 16.077C11.079 16.4775 10.0642 16.692 9 16.692C7.22325 16.692 5.58375 16.0868 4.2855 15.072C4.422 14.7885 5.9835 11.7818 10.3177 10.269ZM13.2855 15.3743C13.2075 14.9055 12.7972 12.6607 11.7922 9.89775C14.2035 9.5175 16.3118 10.1423 16.575 10.23C16.2428 12.3675 15.0135 14.2125 13.2855 15.3743Z" fill="#A0A1A6"/>
</svg>
