<svg width="16" height="15" viewBox="0 0 16 15" fill="none" xmlns="http://www.w3.org/2000/svg">
<path d="M15.0008 3.45001H10.8008" stroke="white" stroke-width="1.5" stroke-miterlimit="10" stroke-linecap="round" stroke-linejoin="round"/>
<path d="M3.8 3.45001H1" stroke="white" stroke-width="1.5" stroke-miterlimit="10" stroke-linecap="round" stroke-linejoin="round"/>
<path d="M6.59844 5.9C7.95153 5.9 9.04844 4.8031 9.04844 3.45C9.04844 2.0969 7.95153 1 6.59844 1C5.24534 1 4.14844 2.0969 4.14844 3.45C4.14844 4.8031 5.24534 5.9 6.59844 5.9Z" stroke="white" stroke-width="1.5" stroke-miterlimit="10" stroke-linecap="round" stroke-linejoin="round"/>
<path d="M14.9992 11.15H12.1992" stroke="white" stroke-width="1.5" stroke-miterlimit="10" stroke-linecap="round" stroke-linejoin="round"/>
<path d="M5.2 11.15H1" stroke="white" stroke-width="1.5" stroke-miterlimit="10" stroke-linecap="round" stroke-linejoin="round"/>
<path d="M9.39922 13.6C10.7523 13.6 11.8492 12.5031 11.8492 11.15C11.8492 9.79691 10.7523 8.70001 9.39922 8.70001C8.04612 8.70001 6.94922 9.79691 6.94922 11.15C6.94922 12.5031 8.04612 13.6 9.39922 13.6Z" stroke="white" stroke-width="1.5" stroke-miterlimit="10" stroke-linecap="round" stroke-linejoin="round"/>
</svg>
