<svg width="16" height="17" viewBox="0 0 16 17" fill="none" xmlns="http://www.w3.org/2000/svg">
<path d="M15.3346 5.01341V1.98675C15.3346 1.04675 14.908 0.666748 13.848 0.666748H11.1546C10.0946 0.666748 9.66797 1.04675 9.66797 1.98675V5.00675C9.66797 5.95341 10.0946 6.32675 11.1546 6.32675H13.848C14.908 6.33341 15.3346 5.95341 15.3346 5.01341Z" stroke="white" stroke-linecap="round" stroke-linejoin="round"/>
<path d="M15.3346 14.18V11.4867C15.3346 10.4267 14.908 10 13.848 10H11.1546C10.0946 10 9.66797 10.4267 9.66797 11.4867V14.18C9.66797 15.24 10.0946 15.6667 11.1546 15.6667H13.848C14.908 15.6667 15.3346 15.24 15.3346 14.18Z" stroke="white" stroke-linecap="round" stroke-linejoin="round"/>
<path d="M6.33464 5.01341V1.98675C6.33464 1.04675 5.90797 0.666748 4.84797 0.666748H2.15464C1.09464 0.666748 0.667969 1.04675 0.667969 1.98675V5.00675C0.667969 5.95341 1.09464 6.32675 2.15464 6.32675H4.84797C5.90797 6.33341 6.33464 5.95341 6.33464 5.01341Z" stroke="white" stroke-linecap="round" stroke-linejoin="round"/>
<path d="M6.33464 14.18V11.4867C6.33464 10.4267 5.90797 10 4.84797 10H2.15464C1.09464 10 0.667969 10.4267 0.667969 11.4867V14.18C0.667969 15.24 1.09464 15.6667 2.15464 15.6667H4.84797C5.90797 15.6667 6.33464 15.24 6.33464 14.18Z" stroke="white" stroke-linecap="round" stroke-linejoin="round"/>
</svg>
