<svg width="18" height="18" viewBox="0 0 18 18" fill="none" xmlns="http://www.w3.org/2000/svg">
<path d="M9.69288 0.5C10.5178 0.5 11.1301 1.1208 11.1301 1.80185V16.1981C11.1301 16.8423 10.5823 17.4311 9.82264 17.4946L9.68386 17.5C8.8635 17.4955 8.25565 16.8767 8.25565 16.1981V1.80185C8.25565 1.1208 8.86796 0.5 9.69288 0.5ZM2.21636 5.89922C3.04127 5.89922 3.65359 6.52001 3.65359 7.20107V16.198C3.65359 16.879 3.04127 17.4998 2.21636 17.4998H1.94056C1.11449 17.4998 0.5 16.878 0.5 16.198V7.20107C0.5 6.52108 1.11449 5.89922 1.94056 5.89922H2.21636ZM16.0628 10.7864C16.8888 10.7864 17.5 11.4052 17.5 12.0852V16.198C17.5 16.879 16.8877 17.4998 16.0628 17.4998C15.2367 17.4998 14.6222 16.878 14.6222 16.198V12.0852C14.6222 11.4063 15.2355 10.7864 16.0628 10.7864Z" stroke="#1D1D1D"/>
</svg>
