<svg width="12" height="12" viewBox="0 0 12 12" fill="none" xmlns="http://www.w3.org/2000/svg">
<path id="icon" d="M0.0285036 3.11659H2.73634V11.6872H0.0285036V3.11659ZM8.29454 3.11659C8.16152 3.11659 8.0285 3.12471 7.89549 3.14094C7.78147 3.15717 7.66746 3.18152 7.55344 3.21399C7.43943 3.24645 7.34442 3.27891 7.26841 3.31138C7.1924 3.32761 7.09739 3.36819 6.98337 3.43312C6.86936 3.48182 6.79335 3.51428 6.75534 3.53051C6.73634 3.54675 6.66983 3.59544 6.55582 3.6766C6.44181 3.75777 6.3848 3.79835 6.3848 3.79835V3.11659H3.67696V11.6872H6.3848V6.28188C6.3848 6.26565 6.3848 6.23318 6.3848 6.18449C6.3848 6.13579 6.4038 6.04651 6.44181 5.91666C6.49881 5.7868 6.56532 5.68129 6.64133 5.60013C6.73634 5.50273 6.87886 5.41346 7.06888 5.33229C7.27791 5.25113 7.51544 5.21055 7.78147 5.21055C8.23753 5.21055 8.57007 5.30795 8.7791 5.50273C9.00713 5.69752 9.12114 5.95724 9.12114 6.28188V11.6872H12V6.37927C12 5.81115 11.8955 5.32418 11.6865 4.91837C11.4774 4.49633 11.2304 4.1798 10.9454 3.96879C10.6793 3.74153 10.3563 3.56298 9.97625 3.43312C9.6152 3.28703 9.30166 3.19775 9.03563 3.16529C8.7886 3.13282 8.54157 3.11659 8.29454 3.11659ZM0.39905 0.340877C0.133017 0.568129 0 0.844077 0 1.16872C0 1.49337 0.133017 1.76932 0.39905 1.99657C0.665083 2.22382 0.988124 2.33744 1.36817 2.33744C1.74822 2.33744 2.07126 2.22382 2.33729 1.99657C2.60333 1.76932 2.73634 1.49337 2.73634 1.16872C2.73634 0.844077 2.60333 0.568129 2.33729 0.340877C2.07126 0.113626 1.74822 0 1.36817 0C0.988124 0 0.665083 0.113626 0.39905 0.340877Z" fill="#A0A1A6"/>
</svg>
