<svg width="14" height="14" viewBox="0 0 14 14" fill="none" xmlns="http://www.w3.org/2000/svg">
<path d="M6.97334 1.16683C7.74714 1.16937 8.51275 1.32534 9.22587 1.62573C9.93898 1.92611 10.5854 2.36495 11.1278 2.91683H9.30668C9.15197 2.91683 9.0036 2.97829 8.8942 3.08768C8.7848 3.19708 8.72334 3.34545 8.72334 3.50016C8.72334 3.65487 8.7848 3.80324 8.8942 3.91264C9.0036 4.02204 9.15197 4.08349 9.30668 4.08349H11.7234C12.0107 4.08334 12.2861 3.96916 12.4892 3.76605C12.6923 3.56293 12.8065 3.28749 12.8067 3.00024V0.583494C12.8067 0.428785 12.7452 0.280412 12.6358 0.171015C12.5264 0.0616192 12.3781 0.000160976 12.2233 0.000160976C12.0686 0.000160976 11.9203 0.0616192 11.8109 0.171015C11.7015 0.280412 11.64 0.428785 11.64 0.583494V1.79566C10.6759 0.927342 9.48902 0.344567 8.2124 0.112598C6.93578 -0.119371 5.61979 0.00862628 4.4118 0.482255C3.20381 0.955884 2.15152 1.75644 1.37277 2.79428C0.594015 3.83212 0.119552 5.06626 0.0025107 6.35849C-0.00502399 6.43973 0.00444491 6.52164 0.0303141 6.59901C0.0561833 6.67638 0.0978855 6.74752 0.152764 6.80789C0.207642 6.86825 0.274492 6.91652 0.349056 6.94963C0.42362 6.98273 0.504262 6.99994 0.585844 7.00016C0.72852 7.00198 0.866739 6.95048 0.973445 6.85575C1.08015 6.76102 1.14766 6.62988 1.16276 6.48799C1.29262 5.03593 1.96075 3.6849 3.03589 2.70032C4.11104 1.71573 5.51549 1.16875 6.97334 1.16683Z" fill="#A0A1A6"/>
<path d="M13.3614 7.00016C13.2188 6.99834 13.0805 7.04984 12.9738 7.14457C12.8671 7.2393 12.7996 7.37044 12.7845 7.51233C12.6881 8.62255 12.2752 9.68181 11.5949 10.5644C10.9146 11.4471 9.99534 12.1161 8.94626 12.492C7.89719 12.8679 6.76229 12.935 5.67622 12.6854C4.59014 12.4357 3.59847 11.8798 2.81884 11.0835H4.64001C4.79472 11.0835 4.94309 11.022 5.05249 10.9126C5.16189 10.8032 5.22334 10.6549 5.22334 10.5002C5.22334 10.3455 5.16189 10.1971 5.05249 10.0877C4.94309 9.97829 4.79472 9.91683 4.64001 9.91683H2.22326C2.08098 9.91675 1.94009 9.94472 1.80863 9.99913C1.67717 10.0535 1.55772 10.1333 1.45712 10.2339C1.35651 10.3345 1.27672 10.454 1.22231 10.5854C1.1679 10.7169 1.13993 10.8578 1.14001 11.0001V13.4168C1.14001 13.5715 1.20147 13.7199 1.31087 13.8293C1.42026 13.9387 1.56863 14.0002 1.72334 14.0002C1.87805 14.0002 2.02643 13.9387 2.13582 13.8293C2.24522 13.7199 2.30668 13.5715 2.30668 13.4168V12.2047C3.27083 13.073 4.45767 13.6558 5.73429 13.8877C7.01091 14.1197 8.3269 13.9917 9.53489 13.5181C10.7429 13.0444 11.7952 12.2439 12.5739 11.206C13.3527 10.1682 13.8271 8.93406 13.9442 7.64183C13.9517 7.56059 13.9422 7.47868 13.9164 7.40131C13.8905 7.32394 13.8488 7.2528 13.7939 7.19244C13.739 7.13207 13.6722 7.0838 13.5976 7.05069C13.5231 7.01759 13.443 7.00038 13.3614 7.00016Z" fill="#A0A1A6"/>
</svg>
