<svg width="18" height="18" viewBox="0 0 18 18" fill="none" xmlns="http://www.w3.org/2000/svg">
<path d="M9.73655 0.752423C9.73655 0.553186 9.81569 0.36211 9.95657 0.221228C10.0975 0.0803462 10.2885 0.00119968 10.4878 0.00119968C12.4795 0.00338694 14.389 0.795554 15.7973 2.2039C17.2056 3.61224 17.9978 5.52174 18 7.51343C18 7.71267 17.9209 7.90374 17.78 8.04463C17.6391 8.18551 17.448 8.26465 17.2488 8.26465C17.0495 8.26465 16.8585 8.18551 16.7176 8.04463C16.5767 7.90374 16.4976 7.71267 16.4976 7.51343C16.4958 5.92009 15.862 4.39251 14.7354 3.26585C13.6087 2.13918 12.0811 1.50544 10.4878 1.50365C10.2885 1.50365 10.0975 1.4245 9.95657 1.28362C9.81569 1.14274 9.73655 0.95166 9.73655 0.752423ZM10.4878 4.50854C11.2847 4.50854 12.049 4.82512 12.6125 5.38865C13.1761 5.95218 13.4927 6.71648 13.4927 7.51343C13.4927 7.71267 13.5718 7.90374 13.7127 8.04463C13.8536 8.18551 14.0446 8.26465 14.2439 8.26465C14.4431 8.26465 14.6342 8.18551 14.7751 8.04463C14.916 7.90374 14.9951 7.71267 14.9951 7.51343C14.9939 6.31838 14.5187 5.17261 13.6736 4.32758C12.8286 3.48255 11.6828 3.00729 10.4878 3.00609C10.2885 3.00609 10.0975 3.08524 9.95657 3.22612C9.81569 3.367 9.73655 3.55808 9.73655 3.75732C9.73655 3.95655 9.81569 4.14763 9.95657 4.28851C10.0975 4.42939 10.2885 4.50854 10.4878 4.50854ZM17.3186 12.5759C17.754 13.0125 17.9985 13.6038 17.9985 14.2204C17.9985 14.8369 17.754 15.4282 17.3186 15.8648L16.635 16.6528C10.4825 22.5432 -4.48937 7.57503 1.31008 1.40298L2.17398 0.651759C2.61102 0.228578 3.1971 -0.00552446 3.80542 9.90184e-05C4.41374 0.0057225 4.99538 0.25062 5.42452 0.681808C5.44781 0.705096 6.83983 2.51329 6.83983 2.51329C7.25287 2.94722 7.4828 3.52363 7.48182 4.12271C7.48085 4.72179 7.24903 5.29745 6.83457 5.73003L5.96465 6.82381C6.44607 7.99355 7.15389 9.05663 8.04743 9.95197C8.94097 10.8473 10.0026 11.5573 11.1714 12.0411L12.2719 11.1659C12.7046 10.7517 13.2801 10.5202 13.879 10.5194C14.4779 10.5185 15.0541 10.7484 15.4879 11.1614C15.4879 11.1614 17.2954 12.5526 17.3186 12.5759ZM16.285 13.6682C16.285 13.6682 14.4873 12.2852 14.464 12.2619C14.3092 12.1085 14.1001 12.0224 13.8822 12.0224C13.6642 12.0224 13.4551 12.1085 13.3003 12.2619C13.2801 12.2829 11.7648 13.4902 11.7648 13.4902C11.6627 13.5714 11.5412 13.6247 11.4123 13.6447C11.2833 13.6648 11.1513 13.6508 11.0294 13.6043C9.51528 13.0406 8.14 12.158 6.99671 11.0164C5.85342 9.87484 4.96883 8.50086 4.40286 6.98758C4.35268 6.86397 4.33632 6.72922 4.35546 6.59719C4.37461 6.46517 4.42856 6.34062 4.51179 6.23635C4.51179 6.23635 5.719 4.72038 5.73929 4.70085C5.89274 4.54609 5.97884 4.33697 5.97884 4.11903C5.97884 3.90109 5.89274 3.69197 5.73929 3.53721C5.716 3.51467 4.333 1.71549 4.333 1.71549C4.17592 1.57464 3.97091 1.49921 3.76 1.50466C3.54909 1.51011 3.34825 1.59602 3.19865 1.74479L2.33474 2.49601C-1.90366 7.59231 11.0707 19.847 15.5367 15.6266L16.2211 14.8379C16.3815 14.6893 16.4778 14.4842 16.4897 14.266C16.5016 14.0477 16.4282 13.8333 16.285 13.6682Z" fill="#D94645"/>
</svg>
