<svg width="18" height="18" viewBox="0 0 18 18" fill="none" xmlns="http://www.w3.org/2000/svg">
<path d="M8.9766 0C13.968 0 18 4.032 18 8.9766C18 13.968 13.968 18 8.9766 18C4.032 18 0 13.968 0 8.9766C0 4.032 4.032 0 8.9766 0ZM8.9766 1.2006C4.7034 1.2006 1.2006 4.7034 1.2006 8.9766C1.2006 13.2966 4.7034 16.7526 8.9766 16.7526C13.2966 16.7526 16.7526 13.2966 16.7526 8.9766C16.7526 4.7034 13.2966 1.2006 8.9766 1.2006Z" fill="#1D1D1D"/>
<path d="M11.4246 10.7998C12.9114 10.7998 14.2074 11.8564 14.4954 13.2478C13.1994 14.8804 11.232 15.9352 8.97657 15.9352C6.76797 15.9352 4.75197 14.8804 3.50457 13.2478C3.79257 11.8564 5.03997 10.7998 6.52857 10.7998H11.4246ZM8.97657 3.9364C10.647 3.9364 12.0006 5.29 12.0006 6.9604C12.0006 8.6308 10.647 9.9844 8.97657 9.9844C7.30617 9.9844 5.95257 8.6308 5.95257 6.9604C5.95257 5.29 7.30617 3.9364 8.97657 3.9364Z" fill="#1D1D1D"/>
</svg>
