<svg width="12" height="11" viewBox="0 0 12 11" fill="none" xmlns="http://www.w3.org/2000/svg">
<path id="icon_03" d="M6.89317 2.82924C7.33077 2.56513 7.70586 2.48745 8.01843 2.5962C8.33101 2.70496 8.50292 2.93022 8.53418 3.27201C8.58106 3.6138 8.49511 4.00996 8.27631 4.4605C7.5105 5.88979 6.95568 6.60444 6.61185 6.60444C6.45557 6.60444 6.3071 6.42578 6.16644 6.06846C6.02578 5.6956 5.84605 5.08193 5.62725 4.22746C5.58036 3.99443 5.51785 3.64487 5.43971 3.1788C5.36156 2.71272 5.28342 2.31656 5.20528 1.99031C5.14276 1.66406 5.04899 1.33004 4.92396 0.98825C4.79893 0.646462 4.6192 0.405657 4.38477 0.265835C4.16597 0.110477 3.90028 0.0638694 3.58771 0.126013C3.13448 0.219227 2.61092 0.498872 2.01703 0.964946C1.42314 1.41548 0.930842 1.84272 0.540126 2.24665C0.165038 2.63504 -0.0146909 2.83701 0.000937719 2.85255L0.49324 3.48175C0.524497 3.46621 0.555755 3.44291 0.587012 3.41183C0.633898 3.38076 0.719855 3.32639 0.844885 3.24871C0.985542 3.17103 1.11057 3.10889 1.21997 3.06228C1.32937 3.01567 1.43877 2.99237 1.54817 2.99237C1.6732 2.99237 1.76697 3.03121 1.82949 3.10889C1.95452 3.24871 2.29053 4.2197 2.83754 6.02185C3.40017 7.824 3.744 8.85713 3.86903 9.12124C4.00969 9.41642 4.19723 9.68053 4.43166 9.91357C4.68172 10.1311 4.97866 10.2942 5.32249 10.4029C5.66632 10.5117 6.02578 10.4418 6.40087 10.1932C6.7447 9.96017 7.16667 9.62615 7.66679 9.19115C8.1669 8.74061 8.72172 8.18133 9.33124 7.51329C9.94076 6.84525 10.4878 6.06846 10.9722 5.18292C11.4567 4.28184 11.7771 3.3963 11.9334 2.52629C12.1522 1.29897 11.8318 0.514408 10.9722 0.17262C10.2221 -0.138096 9.40157 -0.0293454 8.51073 0.498872C7.58864 1.04262 7.04946 1.81941 6.89317 2.82924Z" fill="#A0A1A6"/>
</svg>
