<svg width="15" height="14" viewBox="0 0 15 14" fill="none" xmlns="http://www.w3.org/2000/svg">
<path d="M10.2112 0C9.55429 0.010217 8.91176 0.193581 8.34844 0.531575C7.78511 0.869569 7.32095 1.35022 7.00282 1.925C6.6847 1.35022 6.22053 0.869569 5.65721 0.531575C5.09389 0.193581 4.45135 0.010217 3.79449 0C2.74737 0.0454946 1.76082 0.503565 1.05036 1.27414C0.339909 2.04471 -0.0366972 3.06514 0.00282398 4.1125C0.00282398 8.06458 6.39382 12.6292 6.66566 12.8228L7.00282 13.0614L7.33999 12.8228C7.61182 12.6303 14.0028 8.06458 14.0028 4.1125C14.0423 3.06514 13.6657 2.04471 12.9553 1.27414C12.2448 0.503565 11.2583 0.0454946 10.2112 0ZM7.00282 11.6252C5.10524 10.2078 1.16949 6.72525 1.16949 4.1125C1.12961 3.37442 1.3832 2.65051 1.87495 2.09866C2.3667 1.54681 3.05671 1.21179 3.79449 1.16667C4.53227 1.21179 5.22228 1.54681 5.71403 2.09866C6.20578 2.65051 6.45937 3.37442 6.41949 4.1125H7.58616C7.54628 3.37442 7.79987 2.65051 8.29162 2.09866C8.78337 1.54681 9.47338 1.21179 10.2112 1.16667C10.9489 1.21179 11.6389 1.54681 12.1307 2.09866C12.6224 2.65051 12.876 3.37442 12.8362 4.1125C12.8362 6.72642 8.90041 10.2078 7.00282 11.6252Z" fill="#A0A1A6"/>
</svg>
